<?xml version="1.0" encoding="UTF-8"?>
<svg version="1.1" xmlns="http://www.w3.org/2000/svg" width="1024" height="1024">
<path d="M0 0 C337.92 0 675.84 0 1024 0 C1024 337.92 1024 675.84 1024 1024 C686.08 1024 348.16 1024 0 1024 C0 686.08 0 348.16 0 0 Z " fill="#FEFDFB" transform="translate(0,0)"/>
<path d="M0 0 C25.06776684 9.75782764 50.17839917 19.08592045 76.68731689 24.15289307 C78.55710205 24.52027588 78.55710205 24.52027588 80.46466064 24.89508057 C99.87194942 28.08232934 119.99758548 27.38280354 138.68731689 21.15289307 C137.97003418 21.00779297 137.25275146 20.86269287 136.51373291 20.7131958 C123.28038649 18.01395065 110.13275234 15.17744397 97.12481689 11.52789307 C96.13489746 11.25130859 95.14497803 10.97472412 94.12506104 10.6897583 C87.5328526 8.79868384 81.1028461 6.57405392 74.68731689 4.15289307 C77.68279978 0.92326496 81.06369118 -0.525558 85.06231689 -2.22210693 C86.69699072 -2.92914872 88.33106311 -3.63758196 89.96466064 -4.34710693 C90.87199951 -4.740271 91.77933838 -5.13343506 92.71417236 -5.53851318 C95.95114092 -6.9632259 99.1654536 -8.43224163 102.37872314 -9.90960693 C135.24995275 -24.97858418 172.39229866 -41.8352554 209.19903564 -42.05023193 C210.00095337 -42.05729156 210.80287109 -42.0643512 211.62908936 -42.07162476 C245.65233087 -42.30306699 245.65233087 -42.30306699 259.68731689 -38.84710693 C260.50071533 -38.64843018 261.31411377 -38.44975342 262.15216064 -38.24505615 C286.28874489 -32.11447397 305.44541987 -20.9732038 322.68731689 -2.84710693 C323.61544189 -1.9286499 323.61544189 -1.9286499 324.56231689 -0.99163818 C355.98438426 31.60875671 363.57033149 79.79399047 362.86018372 123.20625305 C361.87572261 167.66904062 343.65529993 211.78639333 328.68731689 253.15289307 C321.74281597 250.97115048 315.19963586 248.25419961 308.56231689 245.27789307 C299.71885102 241.39375896 291.00646785 237.75059568 281.68731689 235.15289307 C280.87327393 234.92150635 280.05923096 234.69011963 279.22052002 234.45172119 C260.41664142 229.22465024 241.26375106 226.71897617 221.92834473 224.41973877 C220.43145095 224.24149927 218.93482587 224.06098888 217.43847656 223.87823486 C128.72398597 213.07599335 50.60889754 232.80316309 -31.86029053 263.65216064 C-63.64708265 275.5130519 -95.79678068 285.83222729 -129.12518311 292.34039307 C-129.91199463 292.49540283 -130.69880615 292.6504126 -131.50946045 292.81011963 C-145.89279081 295.51306687 -160.01662297 296.59587298 -174.62518311 296.59039307 C-175.48330597 296.59112823 -176.34142883 296.5918634 -177.22555542 296.59262085 C-189.88613532 296.56414425 -201.4497594 295.94650706 -213.31268311 291.15289307 C-214.00217041 290.89588623 -214.69165771 290.63887939 -215.40203857 290.37408447 C-239.58766785 281.32322527 -256.72506088 264.07247204 -267.93768311 241.09039307 C-277.88670624 219.0704341 -284.0053911 195.87171438 -288.31268311 172.15289307 C-288.50604248 171.17062744 -288.69940186 170.18836182 -288.89862061 169.17633057 C-289.93643036 163.59622304 -290.53141002 158.04700333 -290.85565186 152.38336182 C-290.89805496 151.64523758 -290.94045807 150.90711334 -290.98414612 150.1466217 C-291.42560405 141.87917472 -291.5121107 133.61814123 -291.50018311 125.34039307 C-291.49957886 124.5560791 -291.49897461 123.77176514 -291.49835205 122.96368408 C-291.47329151 110.93340084 -291.20123492 99.05830294 -289.31268311 87.15289307 C-289.18909424 86.35641357 -289.06550537 85.55993408 -288.93817139 84.73931885 C-283.48390937 51.04189643 -268.05498479 20.57804341 -245.31268311 -4.84710693 C-244.57147217 -5.68241943 -243.83026123 -6.51773193 -243.06658936 -7.37835693 C-178.25359259 -76.3419397 -71.75926842 -27.95137888 0 0 Z " fill="#00453A" transform="translate(474.31268310546875,170.84710693359375)"/>
<path d="M0 0 C1.97859512 0.00173721 1.97859512 0.00173721 3.99716187 0.00350952 C37.04291475 0.04710322 70.30192256 1.22893326 103 6.3125 C104.49080078 6.53075439 104.49080078 6.53075439 106.01171875 6.75341797 C121.56832725 9.03618117 136.56419694 11.90278049 151 18.3125 C150.3599595 23.11187345 149.02210417 27.47697717 147.375 32.0078125 C146.83224009 33.52904014 146.289517 35.05028092 145.74682617 36.5715332 C145.46181244 37.36467926 145.17679871 38.15782532 144.88314819 38.9750061 C143.38173736 43.16140999 141.90370566 47.35603917 140.42578125 51.55078125 C140.13004715 52.38999619 139.83431305 53.22921112 139.52961731 54.09385681 C133.78495815 70.42706727 128.47801036 86.8088126 124.30078125 103.62109375 C124.13333908 104.29260216 123.96589691 104.96411057 123.79338074 105.65596771 C119.35666667 123.49626047 115.46908289 141.45904934 111.57287598 159.42346191 C110.62199897 163.80381777 109.66642856 168.18314869 108.7109375 172.5625 C108.33083681 174.30479847 107.95074036 176.04709787 107.57064819 177.78939819 C107.38326458 178.64829021 107.19588097 179.50718224 107.00281906 180.39210129 C106.44050871 182.97057855 105.87883869 185.54919462 105.31729126 188.12783813 C101.74108191 204.54231437 98.10000925 220.94218736 94.44025421 237.33821297 C93.98721052 239.36985344 93.53532612 241.40174915 93.0836792 243.43370056 C92.8590245 244.44334901 92.8590245 244.44334901 92.62983131 245.47339439 C92.22059542 247.31265757 91.81171556 249.15199994 91.40286255 250.99134827 C81.92333767 292.98833237 70.03018901 340.62171321 42 374.3125 C41.38898438 375.12332031 40.77796875 375.93414063 40.1484375 376.76953125 C32.83967827 385.42044445 22.79157902 391.48267936 11.515625 392.68359375 C4.07154526 392.94717168 -1.59206931 392.13594305 -8 388.3125 C-9.010625 387.755625 -10.02125 387.19875 -11.0625 386.625 C-49.99828561 355.97342409 -53.86939623 274.60950389 -61.04907227 229.20996094 C-64.09597436 209.9558405 -67.10760092 190.94502873 -73 172.3125 C-73.24959473 171.52311035 -73.49918945 170.7337207 -73.75634766 169.92041016 C-78.37630612 155.75233208 -84.99169745 142.43961686 -95 131.3125 C-95.55171875 130.67957031 -96.1034375 130.04664063 -96.671875 129.39453125 C-105.46750547 119.90781553 -118.12502524 113.07307255 -131.09375 112.07421875 C-147.83719589 111.70939596 -160.50119166 117.56978277 -172.55859375 128.91015625 C-173.36425781 129.70292969 -174.16992188 130.49570312 -175 131.3125 C-176.16208984 132.45525391 -176.16208984 132.45525391 -177.34765625 133.62109375 C-187.65311387 144.38614296 -193.45975569 157.28286307 -198 171.3125 C-198.41620605 172.57876221 -198.41620605 172.57876221 -198.84082031 173.87060547 C-205.09651894 193.29637743 -209.148146 213.24186035 -213.42944336 233.17041016 C-241.37063337 363.21384798 -241.37063337 363.21384798 -268 384.3125 C-277.65470294 390.08829836 -286.51656049 393.18577708 -297.77734375 390.69921875 C-320.60677853 383.26409437 -333.21757682 360.45697674 -343.60424805 340.39746094 C-348.9811889 329.6833892 -353.1822383 318.66461938 -357 307.3125 C-357.39928711 306.12575684 -357.79857422 304.93901367 -358.20996094 303.71630859 C-372.50193013 260.67862619 -380.65313077 216.63806038 -388.41262817 172.04458618 C-395.81214856 129.35219515 -395.81214856 129.35219515 -406.1875 87.3125 C-406.39810059 86.57316223 -406.60870117 85.83382446 -406.82568359 85.07208252 C-409.57057811 75.51412122 -412.40891224 66.05062787 -417.125 57.25 C-419.27516057 53.11051765 -420.19595309 48.88287191 -421 44.3125 C-420.34 44.3125 -419.68 44.3125 -419 44.3125 C-418.25363281 45.06789063 -417.50726563 45.82328125 -416.73828125 46.6015625 C-398.08312054 65.07043772 -357.03938769 69.238833 -331.98828125 69.5859375 C-331.15035538 69.59855621 -330.3124295 69.61117493 -329.44911194 69.62417603 C-308.73771541 69.87496584 -289.28723552 68.90326149 -269 64.3125 C-267.1125708 63.89436035 -267.1125708 63.89436035 -265.18701172 63.46777344 C-224.57018412 54.36960915 -185.0958249 40.036136 -146 25.9375 C-120.40335716 16.72909891 -94.84358439 8.83548377 -67.9375 4.5625 C-66.69734131 4.36374268 -65.45718262 4.16498535 -64.17944336 3.96020508 C-42.82584433 0.74011934 -21.57499679 -0.05891792 0 0 Z " fill="#00453A" transform="translate(643,427.6875)"/>
<path d="M0 0 C1.97859512 0.00173721 1.97859512 0.00173721 3.99716187 0.00350952 C37.04291475 0.04710322 70.30192256 1.22893326 103 6.3125 C104.49080078 6.53075439 104.49080078 6.53075439 106.01171875 6.75341797 C119.02269454 8.66263724 131.50943079 11.17160477 144 15.3125 C140.41106313 16.50881229 138.41532152 15.75606988 134.85375977 14.77416992 C81.46997057 0.18310143 19.65709597 6.76560038 -34 17.3125 C-34.66453186 17.44227234 -35.32906372 17.57204468 -36.01373291 17.70574951 C-77.89975408 25.93213453 -117.33307068 41.06551192 -156.40625 57.90328979 C-228.66099604 88.97119034 -307.79577948 107.64031426 -383.93041992 78.375 C-387.19240037 77.0738926 -390.42197194 75.7054884 -393.64501953 74.31103516 C-396.01538928 73.30597479 -398.40642668 72.37531415 -400.80859375 71.44921875 C-407.88132336 68.60229649 -413.23388581 66.41632915 -416.9375 59.375 C-418.84128425 54.46261244 -420.13465946 49.50454327 -421 44.3125 C-420.34 44.3125 -419.68 44.3125 -419 44.3125 C-418.25363281 45.06789063 -417.50726563 45.82328125 -416.73828125 46.6015625 C-398.08312054 65.07043772 -357.03938769 69.238833 -331.98828125 69.5859375 C-331.15035538 69.59855621 -330.3124295 69.61117493 -329.44911194 69.62417603 C-308.73771541 69.87496584 -289.28723552 68.90326149 -269 64.3125 C-267.1125708 63.89436035 -267.1125708 63.89436035 -265.18701172 63.46777344 C-224.57018412 54.36960915 -185.0958249 40.036136 -146 25.9375 C-120.40335716 16.72909891 -94.84358439 8.83548377 -67.9375 4.5625 C-66.69734131 4.36374268 -65.45718262 4.16498535 -64.17944336 3.96020508 C-42.82584433 0.74011934 -21.57499679 -0.05891792 0 0 Z " fill="#BD7B30" transform="translate(643,427.6875)"/>
<path d="M0 0 C8.75628535 -0.11783063 17.5122825 -0.20566534 26.26919842 -0.25906086 C30.33901901 -0.28473715 34.40828301 -0.31932373 38.4777832 -0.37719727 C65.56430316 -0.75191122 91.11188117 1.19579172 117 10 C113.40599415 11.19800195 111.40385454 10.43949607 107.83677673 9.45878601 C98.31493627 6.84976791 88.83260861 5.28654312 79.01171875 4.33984375 C78.02849294 4.2441488 78.02849294 4.2441488 77.02540398 4.14652061 C60.65842 2.59255615 44.31010909 2.64859892 27.88562012 2.79400635 C23.92835618 2.82550892 19.97102681 2.83856508 16.01367188 2.85351562 C8.3422808 2.88504502 0.67119475 2.93576629 -7 3 C-7 2.67 -7 2.34 -7 2 C-4.69 2 -2.38 2 0 2 C0 1.34 0 0.68 0 0 Z " fill="#D5832F" transform="translate(670,433)"/>
<path d="M0 0 C21.30427889 -0.30184803 42.50746637 -0.40700168 63.75 1.4375 C64.91829849 1.53872665 64.91829849 1.53872665 66.11019897 1.64199829 C73.1000166 2.2597057 80.05696767 2.96767193 87 4 C87 4.33 87 4.66 87 5 C68.19 5 49.38 5 30 5 C30.99 3.68 31.98 2.36 33 1 C22.11 1 11.22 1 0 1 C0 0.67 0 0.34 0 0 Z " fill="#B66F22" transform="translate(652,429)"/>
<path d="M0 0 C8.99597592 0.17421784 17.52408683 1.54520385 26.3125 3.375 C27.32570313 3.58406982 28.33890625 3.79313965 29.3828125 4.00854492 C35.42009978 5.30472201 41.17960173 6.93722673 47 9 C43.74080881 10.08639706 42.93809581 9.93440892 39.74609375 9.07421875 C38.89982422 8.85548096 38.05355469 8.63674316 37.18164062 8.41137695 C36.27607422 8.17249756 35.37050781 7.93361816 34.4375 7.6875 C26.56240789 5.69212193 18.87371216 4.28494936 10.77514648 3.63354492 C6.83589109 3.30047491 3.58312268 2.70058361 0 1 C0 0.67 0 0.34 0 0 Z " fill="#C06C18" transform="translate(740,434)"/>
<path d="M0 0 C10.85299084 -0.28435784 21.25368837 0.52682142 32 2 C32 2.33 32 2.66 32 3 C23.75 3 15.5 3 7 3 C7 2.34 7 1.68 7 1 C4.69 1 2.38 1 0 1 C0 0.67 0 0.34 0 0 Z " fill="#B46B1E" transform="translate(707,431)"/>
<path d="M0 0 C2 0 2 0 4.4375 2.3125 C5.283125 3.199375 6.12875 4.08625 7 5 C7.598125 5.598125 8.19625 6.19625 8.8125 6.8125 C9.204375 7.204375 9.59625 7.59625 10 8 C8.35 8.33 6.7 8.66 5 9 C4.67 10.32 4.34 11.64 4 13 C1.97944157 8.60748167 0.59104765 4.84659077 0 0 Z " fill="#B66D20" transform="translate(222,472)"/>
<path d="M0 0 C0.80566406 0.07863281 1.61132812 0.15726563 2.44140625 0.23828125 C3.42947266 0.46064453 3.42947266 0.46064453 4.4375 0.6875 C4.7675 1.3475 5.0975 2.0075 5.4375 2.6875 C1.02524263 4.15825246 -2.04531619 5.05634358 -6.5625 3.6875 C-6.5625 2.6975 -6.5625 1.7075 -6.5625 0.6875 C-4.07849398 -0.55450301 -2.74042364 -0.29471651 0 0 Z " fill="#F8FBFA" transform="translate(608.5625,190.3125)"/>
<path d="M0 0 C-3.44919626 2.29946417 -6.1381022 2.80769035 -10.1875 3.625 C-12.09595703 4.01558594 -12.09595703 4.01558594 -14.04296875 4.4140625 C-15.50669922 4.70410156 -15.50669922 4.70410156 -17 5 C-17 4.01 -17 3.02 -17 2 C-11.21642935 -0.01167675 -6.09781001 -0.22084624 0 0 Z " fill="#CD8030" transform="translate(598,446)"/>
<path d="M0 0 C0 0.66 0 1.32 0 2 C-4.29 2.66 -8.58 3.32 -13 4 C-13 3.34 -13 2.68 -13 2 C-11.58461283 1.66127487 -10.16762037 1.32925376 -8.75 1 C-7.56664062 0.7215625 -7.56664062 0.7215625 -6.359375 0.4375 C-4 0 -4 0 0 0 Z " fill="#10413A" transform="translate(613,444)"/>
<path d="M0 0 C-3.20945602 2.8503026 -5.49988548 3.43451699 -9.75 3.6875 C-10.73484375 3.75324219 -11.7196875 3.81898438 -12.734375 3.88671875 C-13.48203125 3.92410156 -14.2296875 3.96148437 -15 4 C-14.67 3.34 -14.34 2.68 -14 2 C-9.17574056 0.52819204 -5.07522852 -0.25376143 0 0 Z " fill="#B56E21" transform="translate(552,438)"/>
<path d="M0 0 C2.97 0 5.94 0 9 0 C8.01 1.485 8.01 1.485 7 3 C5.0546875 3.29296875 5.0546875 3.29296875 2.875 3.1875 C1.59625 3.125625 0.3175 3.06375 -1 3 C-0.67 2.01 -0.34 1.02 0 0 Z " fill="#C0843E" transform="translate(601,429)"/>
<path d="M0 0 C2.31 0.66 4.62 1.32 7 2 C4.36095629 3.41377341 1.92879371 4.37240135 -1 5 C-0.67 3.35 -0.34 1.7 0 0 Z " fill="#D6E4E2" transform="translate(607,190)"/>
<path d="M0 0 C2.97 0.33 5.94 0.66 9 1 C9 1.66 9 2.32 9 3 C9.66 3.33 10.32 3.66 11 4 C6.94393835 3.53199289 3.53411321 3.12046792 0 1 C0 0.67 0 0.34 0 0 Z " fill="#D7822F" transform="translate(263,506)"/>
</svg>
