<svg width="32" height="32" viewBox="0 0 32 32" xmlns="http://www.w3.org/2000/svg">
  <!-- Tooth shape -->
  <path d="M16 3 C19 3, 22 4, 23 8 C24 12, 24 16, 24 20 C24 22, 22 24, 20 25 C18 26, 14 26, 12 25 C10 24, 8 22, 8 20 C8 16, 8 12, 9 8 C10 4, 13 3, 16 3 Z" 
        fill="#1a5f7a"/>
  
  <!-- Crown detail -->
  <path d="M13 6 C15 6, 17 6, 19 6 C19 8, 20 10, 20 12 C20 14, 19 16, 18 17 C17 17, 15 17, 13 17 C12 16, 12 14, 12 12 C12 10, 13 8, 13 6 Z" 
        fill="#ffffff"/>
  
  <!-- Decorative band -->
  <path d="M11 13 Q16 12, 21 13 Q16 14, 11 13 Z" 
        fill="#ffffff" stroke="#d4af37" stroke-width="0.5"/>
  <path d="M11 14 Q16 13, 21 14 Q16 15, 11 14 Z" 
        fill="#d4af37"/>
  
  <!-- Roots -->
  <path d="M13 20 C13 22, 12 24, 11 25 C10 26, 8 25, 8 24 C8 23, 9 22, 10 21 C11 21, 12 20, 13 20 Z" 
        fill="#1a5f7a"/>
  <path d="M19 20 C19 22, 20 24, 21 25 C22 26, 24 25, 24 24 C24 23, 23 22, 22 21 C21 21, 20 20, 19 20 Z" 
        fill="#1a5f7a"/>
</svg>
